<svg xmlns="http://www.w3.org/2000/svg" viewBox="0 0 512 512" width="512" height="512">
  <!-- Fondo con tema espacial -->
  <defs>
    <linearGradient id="bgGradient" x1="0%" y1="0%" x2="100%" y2="100%">
      <stop offset="0%" stop-color="#0B0E18" />
      <stop offset="100%" stop-color="#1E2233" />
    </linearGradient>
    <linearGradient id="docGradient" x1="0%" y1="0%" x2="100%" y2="100%">
      <stop offset="0%" stop-color="#F5F7FF" stop-opacity="0.15" />
      <stop offset="100%" stop-color="#F5F7FF" stop-opacity="0.05" />
    </linearGradient>
    <linearGradient id="accentGradient" x1="0%" y1="0%" x2="100%" y2="100%">
      <stop offset="0%" stop-color="#4B79CC" />
      <stop offset="100%" stop-color="#6B4BCC" />
    </linearGradient>
    <linearGradient id="tealGradient" x1="0%" y1="0%" x2="100%" y2="100%">
      <stop offset="0%" stop-color="#35D8EB" />
      <stop offset="100%" stop-color="#4B9ECC" />
    </linearGradient>
    <filter id="glow" x="-20%" y="-20%" width="140%" height="140%">
      <feGaussianBlur stdDeviation="8" result="blur" />
      <feComposite in="SourceGraphic" in2="blur" operator="over" />
    </filter>
  </defs>
  
  <!-- Fondo -->
  <rect width="512" height="512" rx="50" fill="url(#bgGradient)" />
  
  <!-- Estrellas del fondo -->
  <g>
    <circle cx="60" cy="70" r="1.5" fill="#F5F7FF" opacity="0.7" />
    <circle cx="120" cy="40" r="2" fill="#F5F7FF" opacity="0.8" />
    <circle cx="200" cy="30" r="1" fill="#F5F7FF" opacity="0.6" />
    <circle cx="280" cy="50" r="1.5" fill="#F5F7FF" opacity="0.7" />
    <circle cx="350" cy="90" r="2" fill="#F5F7FF" opacity="0.8" />
    <circle cx="420" cy="60" r="1" fill="#F5F7FF" opacity="0.6" />
    <circle cx="470" cy="120" r="1.5" fill="#F5F7FF" opacity="0.7" />
    <circle cx="30" cy="150" r="2" fill="#F5F7FF" opacity="0.8" />
    <circle cx="90" cy="200" r="1" fill="#F5F7FF" opacity="0.6" />
    <circle cx="150" cy="250" r="1.5" fill="#F5F7FF" opacity="0.7" />
    <circle cx="400" cy="180" r="2" fill="#F5F7FF" opacity="0.8" />
    <circle cx="480" cy="240" r="1" fill="#F5F7FF" opacity="0.6" />
    <circle cx="50" cy="300" r="1.5" fill="#F5F7FF" opacity="0.7" />
    <circle cx="100" cy="350" r="2" fill="#F5F7FF" opacity="0.8" />
    <circle cx="180" cy="400" r="1" fill="#F5F7FF" opacity="0.6" />
    <circle cx="260" cy="430" r="1.5" fill="#F5F7FF" opacity="0.7" />
    <circle cx="330" cy="380" r="2" fill="#F5F7FF" opacity="0.8" />
    <circle cx="410" cy="450" r="1" fill="#F5F7FF" opacity="0.6" />
    <circle cx="470" cy="350" r="1.5" fill="#F5F7FF" opacity="0.7" />
  </g>
  
  <!-- Papel principal -->
  <g transform="translate(100, 70)">
    <rect x="0" y="0" width="312" height="372" rx="12" fill="url(#docGradient)" stroke="#F5F7FF" stroke-opacity="0.3" stroke-width="2" />
    
    <!-- Líneas de texto con texto censurado -->
    <g fill="#F5F7FF" fill-opacity="0.7">
      <rect x="40" y="60" width="180" height="10" rx="5" />
      <rect x="40" y="80" width="232" height="10" rx="5" />
      <rect x="40" y="100" width="120" height="10" rx="5" />
      <rect x="40" y="140" width="200" height="10" rx="5" />
      <rect x="40" y="160" width="232" height="10" rx="5" />
      <rect x="40" y="180" width="160" height="10" rx="5" />
      <rect x="40" y="220" width="180" height="10" rx="5" />
      <rect x="40" y="240" width="232" height="10" rx="5" />
      <rect x="40" y="260" width="140" height="10" rx="5" />
      <rect x="40" y="300" width="200" height="10" rx="5" />
      <rect x="40" y="320" width="232" height="10" rx="5" />
    </g>
    
    <!-- Bloques censurados con gradiente de acento -->
    <g fill="url(#accentGradient)" filter="url(#glow)">
      <rect x="170" y="100" width="70" height="10" rx="5" />
      <rect x="180" y="180" width="80" height="10" rx="5" />
      <rect x="160" y="260" width="90" height="10" rx="5" />
      <rect x="72" y="320" width="60" height="10" rx="5" />
    </g>
  </g>
  
  <!-- Símbolo de escudo / protección -->
  <g transform="translate(256, 256) scale(0.85) translate(-80, -80)">
    <path d="M80 0 L160 40 L160 120 C160 150 130 175 80 200 C30 175 0 150 0 120 L0 40 L80 0 Z" fill="url(#tealGradient)" opacity="0.9" filter="url(#glow)" />
    
    <!-- Símbolo de ojo con tachado -->
    <g transform="translate(40, 90)">
      <ellipse cx="40" cy="10" rx="35" ry="20" fill="none" stroke="#F5F7FF" stroke-width="6" />
      <circle cx="40" cy="10" r="10" fill="#F5F7FF" />
      <line x1="10" y1="-10" x2="70" y2="30" stroke="#F5F7FF" stroke-width="6" stroke-linecap="round" />
      <line x1="10" y1="-10" x2="70" y2="30" stroke="url(#accentGradient)" stroke-width="3" stroke-linecap="round" />
    </g>
  </g>
</svg>